<?xml version="1.0" encoding="UTF-8" standalone="no"?>
<!DOCTYPE svg PUBLIC "-//W3C//DTD SVG 1.1//EN" "http://www.w3.org/Graphics/SVG/1.1/DTD/svg11.dtd">
<svg xmlns="http://www.w3.org/2000/svg" version="1.1" viewBox="0.00 0.00 512.00 488.00">
<g stroke-width="2.00" fill="none" stroke-linecap="butt">
<path stroke="#80e6e6" vector-effect="non-scaling-stroke" d="
  M 281.65 181.40
  Q 281.78 182.30 282.60 183.24"
/>
<path stroke="#80e6e6" vector-effect="non-scaling-stroke" d="
  M 223.18 183.24
  Q 226.67 180.84 227.01 176.52"
/>
</g>
<path fill="#ffffff" d="
  M 258.46 65.51
  C 254.67 72.37 263.75 73.40 267.88 74.99
  A 1.98 1.97 26.5 0 1 268.85 77.88
  L 265.97 82.49
  A 0.96 0.96 0.0 0 1 264.40 82.58
  L 256.43 72.55
  A 2.42 2.41 45.7 0 0 252.68 72.50
  L 244.17 82.68
  A 1.19 1.19 0.0 0 1 242.16 82.36
  L 239.90 76.74
  A 1.17 1.17 0.0 0 1 240.60 75.20
  C 243.14 74.32 254.08 71.47 250.46 66.50
  Q 249.56 65.26 248.22 66.00
  Q 245.60 67.46 243.57 69.53
  Q 240.86 72.30 241.06 68.43
  C 241.46 60.75 248.31 56.52 255.55 57.18
  Q 265.69 58.11 268.84 69.41
  A 1.24 1.23 -86.3 0 1 267.17 70.88
  Q 262.95 69.08 260.30 65.40
  A 1.09 1.09 0.0 0 0 258.46 65.51
  Z"
/>
<ellipse fill="#ffffff" cx="0.00" cy="0.00" transform="translate(236.10,82.56) rotate(81.2)" rx="2.47" ry="1.89"/>
<path fill="#ffffff" d="
  M 275.05 82.93
  A 0.38 0.38 0.0 0 1 275.00 83.47
  L 274.88 83.57
  A 4.12 1.95 -39.6 0 1 270.46 84.69
  L 270.33 84.54
  A 4.12 1.95 -39.6 0 1 272.26 80.41
  L 272.39 80.31
  A 0.38 0.38 0.0 0 1 272.92 80.36
  L 275.05 82.93
  Z"
/>
<rect fill="#ffffff" x="-6.46" y="-2.30" transform="translate(254.51,85.45) rotate(0.2)" width="12.92" height="4.60" rx="2.21"/>
<path fill="#00cccc" d="
  M 250.20 97.68
  A 3.12 3.12 0.0 0 0 246.40 97.27
  Q 244.82 98.25 242.81 98.03
  A 1.31 1.30 -63.5 0 1 242.06 95.78
  Q 248.85 89.43 258.24 91.08
  C 260.87 91.54 267.41 94.16 265.91 97.69
  A 0.63 0.63 0.0 0 1 265.21 98.06
  Q 263.96 97.82 262.80 97.46
  C 256.50 95.53 258.06 103.69 253.34 101.75
  Q 252.89 101.56 252.68 101.13
  Q 251.76 99.19 250.20 97.68
  Z"
/>
<path fill="#ffffff" d="
  M 281.65 181.40
  Q 281.78 182.30 282.60 183.24
  C 283.77 185.86 286.04 187.48 285.92 190.71
  C 285.64 198.78 285.16 207.08 282.00 214.75
  C 280.56 218.26 278.78 219.69 275.17 221.45
  C 268.96 224.49 264.37 226.85 260.61 229.84
  C 253.29 235.67 246.69 228.67 239.99 226.49
  C 237.68 225.73 235.39 225.34 233.55 223.45
  C 227.73 217.47 224.10 210.40 221.17 202.80
  C 218.93 196.99 220.92 188.96 223.18 183.24
  Q 226.67 180.84 227.01 176.52
  C 229.13 171.68 231.75 169.44 237.09 168.10
  Q 243.18 166.57 248.80 163.14
  A 1.08 1.07 58.0 0 0 249.14 161.64
  L 248.98 161.39
  Q 248.07 160.01 246.56 160.68
  L 233.10 166.68
  Q 232.56 166.92 232.29 166.40
  L 231.32 164.48
  Q 231.06 163.98 231.39 163.51
  Q 232.91 161.34 233.05 160.02
  Q 233.21 158.63 232.01 159.36
  Q 230.67 160.18 229.86 161.56
  A 1.07 1.07 0.0 0 1 227.99 161.51
  C 223.85 153.59 227.69 142.51 229.55 134.36
  Q 229.64 133.98 230.02 134.04
  L 244.71 136.30
  Q 246.84 136.63 245.02 135.48
  L 222.66 121.35
  A 1.47 1.47 0.0 0 1 222.79 118.79
  L 239.38 110.50
  A 1.52 1.52 0.0 0 0 240.22 109.14
  L 240.25 104.53
  A 1.54 1.54 0.0 0 1 242.60 103.23
  Q 249.81 107.74 253.11 115.53
  A 1.67 1.56 63.6 0 0 255.38 116.38
  Q 255.70 116.19 256.07 115.23
  Q 259.28 106.85 267.61 102.88
  A 0.84 0.84 0.0 0 1 268.80 103.82
  Q 267.56 109.44 273.02 112.48
  Q 279.71 116.20 286.42 119.36
  A 1.07 1.07 0.0 0 1 286.53 121.23
  L 264.18 135.42
  Q 262.19 136.68 264.51 136.30
  L 277.79 134.15
  A 1.33 1.31 75.9 0 1 279.26 135.04
  Q 281.76 142.60 282.93 150.49
  Q 284.71 162.57 274.10 165.49
  C 268.83 166.93 265.87 163.32 262.77 159.97
  A 1.07 1.06 -55.4 0 0 261.00 160.30
  C 259.03 165.23 264.70 166.05 267.84 167.21
  C 274.70 169.74 278.47 174.93 281.65 181.40
  Z
  M 254.44 148.82
  Q 254.01 148.80 253.92 149.22
  C 252.99 153.73 249.65 157.16 251.97 161.74
  Q 252.20 162.19 252.70 162.22
  Q 254.39 162.34 255.97 162.98
  A 1.24 1.23 -70.2 0 0 257.63 162.19
  C 258.77 158.40 257.30 153.17 255.88 149.56
  Q 255.60 148.87 254.44 148.82
  Z
  M 249.41 224.57
  C 262.46 227.91 273.90 216.71 277.84 205.41
  A 0.57 0.57 0.0 0 0 277.57 204.72
  Q 277.06 204.44 276.62 205.04
  C 272.33 210.80 263.47 217.87 256.00 216.93
  Q 249.31 216.10 244.71 216.48
  Q 242.21 216.68 240.86 216.13
  C 235.89 214.10 231.12 206.88 228.96 202.35
  Q 228.35 201.09 227.94 202.43
  C 224.50 213.58 241.16 222.46 249.41 224.57
  Z
  M 245.0726 213.5188
  A 4.16 1.06 43.6 0 0 242.7910 209.8824
  A 4.16 1.06 43.6 0 0 239.0474 207.7812
  A 4.16 1.06 43.6 0 0 241.3290 211.4176
  A 4.16 1.06 43.6 0 0 245.0726 213.5188
  Z"
/>
<path fill="#b366ff" d="
  M 305.82 107.66
  Q 317.80 112.64 323.55 115.73
  Q 326.79 117.47 335.40 119.05
  Q 335.94 119.15 336.20 119.64
  C 337.05 121.24 336.21 122.64 334.66 123.40
  Q 326.59 127.38 318.87 122.35
  C 313.43 118.81 309.16 115.57 302.25 113.51
  Q 292.58 110.64 281.90 109.65
  A 0.67 0.67 0.0 0 1 281.35 108.69
  C 282.27 106.81 283.78 106.80 285.53 106.27
  Q 295.40 103.33 305.82 107.66
  Z"
/>
<path fill="#b366ff" d="
  M 173.90 119.61
  C 185.27 115.30 196.00 109.58 207.76 106.38
  C 212.84 104.99 223.97 104.29 227.86 108.78
  A 0.60 0.60 0.0 0 1 227.57 109.75
  C 223.39 110.92 218.72 110.93 215.09 111.44
  Q 212.06 111.87 209.24 112.13
  A 10.76 10.72 -63.0 0 0 204.80 113.58
  Q 195.81 118.90 186.02 124.72
  Q 185.01 125.32 182.18 125.31
  C 178.29 125.29 175.13 125.18 173.22 121.34
  A 1.25 1.25 0.0 0 1 173.90 119.61
  Z"
/>
<path fill="#ffffff" d="
  M 214.34 140.00
  A 2.67 2.67 0.0 0 0 210.22 139.29
  L 196.21 151.73
  A 0.57 0.56 -21.7 0 1 195.27 151.33
  C 194.96 140.84 200.10 130.25 209.79 125.82
  C 212.71 124.48 220.13 122.28 222.08 125.96
  C 225.52 132.47 225.64 140.17 221.21 146.12
  A 2.14 2.14 0.0 0 1 217.93 146.30
  Q 216.22 144.45 215.00 141.43
  Q 214.62 140.50 214.34 140.00
  Z"
/>
<path fill="#ffffff" d="
  M 299.57 126.15
  Q 314.53 134.27 313.68 151.67
  A 0.41 0.41 0.0 0 1 312.99 151.96
  L 298.61 139.13
  A 1.84 1.84 0.0 0 0 296.28 139.04
  C 293.18 141.40 292.43 145.22 289.61 147.68
  A 1.04 1.04 0.0 0 1 288.03 147.43
  Q 281.60 136.80 287.20 125.95
  C 289.16 122.14 296.87 124.68 299.57 126.15
  Z"
/>
<path fill="#b366ff" d="
  M 155.16 154.07
  C 165.93 149.64 171.65 146.71 175.49 135.16
  Q 176.27 132.81 178.57 131.88
  L 183.18 130.00
  Q 185.42 129.09 184.79 131.43
  C 181.87 142.19 178.91 153.59 166.79 157.58
  C 162.77 158.91 157.47 160.08 154.54 157.05
  A 1.84 1.84 0.0 0 1 155.16 154.07
  Z"
/>
<path fill="#b366ff" d="
  M 346.33 150.91
  C 348.95 152.37 355.64 152.66 353.88 158.03
  Q 353.73 158.48 353.30 158.69
  Q 347.32 161.63 342.30 158.93
  C 333.85 154.40 330.41 148.27 326.14 140.10
  C 324.74 137.42 324.33 134.67 325.17 131.96
  A 1.77 1.76 -71.5 0 1 327.44 130.82
  Q 330.63 131.95 332.37 134.36
  C 336.22 139.71 340.67 147.75 346.33 150.91
  Z"
/>
<ellipse fill="#00cccc" cx="0.00" cy="0.00" transform="translate(292.90,150.52) rotate(-42.3)" rx="3.79" ry="1.49"/>
<ellipse fill="#ffffff" cx="0.00" cy="0.00" transform="translate(198.09,163.63) rotate(125.6)" rx="16.92" ry="6.23"/>
<path fill="#ffffff" d="
  M 317.79 178.27
  Q 306.78 170.40 300.32 158.48
  C 298.15 154.48 299.10 148.54 305.24 150.15
  C 315.14 152.74 320.30 167.58 321.87 176.33
  A 2.30 2.30 0.0 0 1 320.01 179.00
  Q 319.06 179.18 317.79 178.27
  Z"
/>
<path fill="#00cccc" d="
  M 282.60 183.24
  Q 281.78 182.30 281.65 181.40
  Q 281.98 178.66 281.96 175.99
  C 281.94 174.09 282.76 172.81 283.72 171.37
  Q 284.25 170.57 283.57 169.89
  L 282.19 168.48
  Q 281.39 167.67 280.77 168.62
  L 279.65 170.35
  Q 279.37 170.78 278.87 170.89
  L 276.74 171.33
  A 0.63 0.62 -6.1 0 1 275.99 170.73
  L 275.93 167.85
  A 0.77 0.76 77.0 0 1 276.37 167.14
  L 291.54 160.07
  A 1.33 1.32 59.5 0 1 293.16 160.49
  Q 297.99 166.99 302.75 173.48
  Q 305.18 176.77 305.09 180.38
  A 1.00 1.00 0.0 0 1 303.38 181.05
  L 290.28 167.76
  Q 289.76 167.24 289.07 167.47
  Q 288.40 167.69 288.32 168.90
  Q 288.06 172.42 287.99 175.96
  C 287.93 178.90 286.74 181.13 285.78 183.80
  A 0.74 0.74 0.0 0 1 284.61 184.12
  Q 282.94 182.74 282.60 183.24
  Z"
/>
<path fill="#00cccc" d="
  M 227.01 176.52
  Q 226.67 180.84 223.18 183.24
  Q 222.88 180.14 221.18 177.24
  Q 220.91 176.79 220.96 176.28
  Q 221.35 171.91 219.88 167.80
  Q 219.36 166.34 218.19 167.36
  Q 211.60 173.14 206.29 180.52
  Q 205.55 181.55 203.45 181.77
  Q 202.95 181.82 202.92 181.33
  C 202.60 176.20 211.35 165.48 215.22 162.22
  Q 217.77 160.07 220.77 161.57
  Q 223.91 163.15 229.66 164.12
  Q 231.29 164.39 230.94 166.38
  Q 230.86 166.82 230.46 167.00
  C 226.74 168.69 223.20 172.89 227.01 176.52
  Z"
/>
<path fill="#b366ff" d="
  M 133.65 181.58
  C 137.23 180.27 140.00 178.06 143.13 175.98
  C 150.48 171.08 156.53 161.15 166.38 161.92
  A 1.03 1.03 0.0 0 1 167.21 163.43
  C 162.82 171.66 154.82 183.03 145.30 185.23
  C 141.62 186.08 133.06 187.50 130.33 183.93
  A 0.56 0.56 0.0 0 1 130.49 183.11
  Q 131.95 182.21 133.65 181.58
  Z"
/>
<path fill="#b366ff" d="
  M 361.42 184.34
  C 354.12 182.05 348.80 174.64 344.59 168.48
  Q 342.62 165.60 343.06 163.11
  Q 343.36 161.47 344.98 161.86
  Q 349.75 162.98 353.17 165.89
  C 360.93 172.48 369.61 177.43 377.88 183.30
  Q 380.57 185.20 377.32 185.75
  Q 369.91 187.01 361.42 184.34
  Z"
/>
<path fill="#ffffff" d="
  M 325.34 185.45
  C 327.43 183.46 327.50 179.79 327.15 177.02
  Q 326.81 174.34 328.61 176.36
  Q 333.58 181.98 337.10 188.58
  A 1.49 1.49 0.0 0 1 336.56 190.55
  L 324.85 197.63
  A 2.06 2.05 50.7 0 1 322.39 197.38
  Q 318.54 193.86 314.35 190.20
  Q 312.41 188.51 314.02 186.37
  Q 314.83 185.28 316.13 185.69
  C 319.35 186.69 322.43 188.23 325.34 185.45
  Z"
/>
<path fill="#ffffff" d="
  M 183.98 186.83
  A 2.44 2.41 -36.9 0 0 186.19 187.13
  C 187.99 186.50 194.38 184.98 194.74 188.16
  C 195.10 191.32 190.09 195.20 187.64 196.40
  C 183.63 198.37 174.98 192.26 171.78 189.83
  Q 170.76 189.05 171.55 188.04
  L 179.45 177.89
  Q 182.06 174.54 181.75 178.77
  C 181.58 181.10 181.56 185.13 183.98 186.83
  Z"
/>
<path fill="#b366ff" d="
  M 103.96 211.49
  C 108.66 209.40 113.93 208.30 118.10 205.93
  Q 126.30 201.27 133.48 195.14
  C 136.71 192.37 143.10 188.61 147.45 189.06
  Q 148.35 189.16 148.02 189.99
  C 146.83 193.03 145.53 194.31 142.87 197.28
  C 133.52 207.71 122.04 217.37 109.10 222.95
  C 101.37 226.29 93.00 229.57 84.50 229.99
  C 69.65 230.74 55.18 228.68 43.51 218.73
  C 42.28 217.67 41.35 216.34 42.05 214.79
  A 1.54 1.53 17.1 0 1 43.72 213.91
  C 58.50 216.52 70.78 219.60 85.96 216.54
  Q 90.74 215.58 95.54 214.71
  C 98.63 214.16 101.13 212.75 103.96 211.49
  Z"
/>
<path fill="#b366ff" d="
  M 379.50 198.09
  C 403.69 216.31 437.36 223.08 466.04 213.00
  C 466.67 212.78 467.38 212.88 467.77 213.39
  A 1.06 1.04 41.4 0 1 467.85 214.53
  C 466.25 217.39 464.00 221.51 460.97 222.81
  Q 457.29 224.39 457.17 224.45
  Q 448.74 229.04 438.25 229.15
  Q 424.99 229.28 415.01 227.67
  C 398.99 225.08 386.17 217.74 374.28 206.98
  Q 368.35 201.62 365.55 197.20
  Q 363.25 193.55 360.90 191.56
  Q 360.57 191.27 360.71 190.86
  Q 361.40 188.94 363.01 189.23
  C 369.21 190.33 373.27 193.40 379.50 198.09
  Z"
/>
<ellipse fill="#00cccc" cx="0.00" cy="0.00" transform="translate(195.28,197.86) rotate(127.8)" rx="8.39" ry="2.51"/>
<ellipse fill="#00cccc" cx="0.00" cy="0.00" transform="translate(313.14,197.23) rotate(49.5)" rx="7.14" ry="2.61"/>
<path fill="#ffffff" d="
  M 157.51 219.18
  C 162.81 211.89 165.10 206.12 167.34 198.18
  A 1.54 1.53 24.7 0 1 169.67 197.32
  L 176.36 201.79
  A 1.93 1.93 0.0 0 1 176.88 204.49
  L 163.72 223.73
  Q 162.44 225.60 160.62 224.32
  L 158.07 222.53
  Q 156.08 221.14 157.51 219.18
  Z"
/>
<path fill="#ffffff" d="
  M 338.32 198.31
  A 1.53 1.53 0.0 0 1 340.41 198.89
  L 344.64 206.36
  A 18.06 3.90 60.5 0 1 350.14 224.00
  L 348.90 224.70
  A 18.06 3.90 60.5 0 1 336.61 210.90
  L 332.38 203.43
  A 1.53 1.53 0.0 0 1 332.96 201.34
  L 338.32 198.31
  Z"
/>
<path fill="#00cccc" d="
  M 190.17 211.30
  C 181.84 215.21 174.94 220.77 168.58 227.34
  Q 167.64 228.31 166.48 228.10
  Q 165.97 228.00 166.04 227.49
  Q 166.69 222.75 168.06 221.32
  Q 175.06 214.01 183.07 207.87
  Q 186.40 205.31 190.46 206.12
  Q 190.99 206.22 191.00 206.77
  L 191.00 209.98
  A 1.47 1.44 77.6 0 1 190.17 211.30
  Z"
/>
<path fill="#00cccc" d="
  M 319.23 208.59
  A 0.90 0.89 40.1 0 1 319.16 207.82
  C 322.23 199.37 338.50 219.12 340.54 221.79
  C 341.07 222.48 341.24 223.41 341.09 224.16
  A 1.36 1.36 0.0 0 1 338.99 225.01
  Q 329.79 218.67 321.45 211.53
  Q 320.53 210.74 319.23 208.59
  Z"
/>
<path fill="#00cccc" d="
  M 299.77 212.08
  C 302.12 217.47 304.64 222.39 306.07 227.13
  Q 308.98 236.73 310.41 246.68
  C 310.92 250.21 310.53 267.43 303.91 265.94
  A 1.21 1.20 7.1 0 1 302.97 264.74
  Q 303.13 252.23 302.76 239.50
  Q 302.72 238.12 301.78 234.05
  Q 299.35 223.42 296.18 212.85
  A 1.42 1.42 0.0 0 1 297.20 211.06
  L 297.53 210.98
  A 1.94 1.93 -18.6 0 1 299.77 212.08
  Z"
/>
<path fill="#00cccc" d="
  M 202.01 229.01
  C 204.96 223.94 206.28 218.32 208.89 213.09
  C 209.50 211.85 210.29 211.38 211.58 211.96
  Q 212.02 212.16 212.02 212.64
  C 212.02 214.29 212.16 215.83 211.66 217.43
  Q 210.55 220.98 209.28 224.49
  C 208.84 225.69 209.03 227.57 208.63 228.99
  Q 205.55 239.77 205.23 250.96
  C 205.11 255.20 206.19 260.37 205.98 265.10
  A 1.32 1.32 0.0 0 1 203.93 266.13
  C 194.10 259.50 198.66 242.43 200.95 232.50
  Q 201.59 229.74 202.01 229.01
  Z"
/>
<path fill="#00cccc" d="
  M 54.57 229.67
  Q 62.81 232.82 66.94 232.86
  Q 71.44 232.90 75.90 233.55
  Q 76.37 233.62 76.61 234.03
  Q 77.06 234.79 76.68 235.48
  Q 76.39 236.00 75.62 236.25
  C 68.51 238.51 57.38 236.92 51.15 233.30
  C 47.21 231.01 43.92 229.53 41.27 225.53
  Q 39.83 223.36 42.33 222.66
  Q 42.75 222.54 43.84 223.05
  Q 44.43 223.33 45.12 223.90
  Q 49.94 227.90 54.57 229.67
  Z"
/>
<path fill="#00cccc" d="
  M 433.68 234.19
  C 444.61 233.78 454.50 231.30 463.08 224.34
  Q 464.53 223.17 466.18 222.85
  Q 466.74 222.74 466.88 223.29
  C 467.74 226.63 462.61 230.17 460.37 232.12
  C 453.30 238.24 442.28 238.03 433.86 235.75
  Q 433.21 235.57 433.07 235.36
  A 0.76 0.76 0.0 0 1 433.68 234.19
  Z"
/>
<ellipse fill="#00cccc" cx="0.00" cy="0.00" transform="translate(269.45,233.41) rotate(102.7)" rx="7.81" ry="2.04"/>
<path fill="#ffffff" d="
  M 272.41 249.27
  C 276.91 242.52 280.32 235.41 283.15 227.70
  Q 284.60 223.75 286.19 227.64
  Q 286.64 228.76 286.93 231.49
  C 289.34 254.38 291.21 266.90 288.48 285.85
  Q 288.41 286.31 288.07 286.64
  L 285.30 289.37
  Q 283.03 291.60 283.02 288.42
  Q 283.00 278.92 278.52 270.07
  Q 277.49 268.02 277.19 265.70
  Q 276.18 257.84 272.35 251.18
  A 1.80 1.79 47.1 0 1 272.41 249.27
  Z"
/>
<path fill="#ffffff" d="
  M 244.92 304.74
  C 246.76 306.88 251.02 309.20 251.87 311.34
  C 252.83 313.77 251.33 315.60 248.80 315.83
  C 239.55 316.67 234.00 310.32 236.41 301.05
  C 238.24 294.01 235.58 290.80 230.89 286.24
  Q 230.50 285.87 230.41 285.34
  L 228.15 272.18
  A 0.62 0.62 0.0 0 0 227.06 271.89
  C 225.39 273.91 225.05 281.61 224.65 284.46
  Q 224.59 284.94 224.10 284.93
  Q 222.72 284.90 222.39 283.54
  C 222.02 282.07 222.06 279.98 221.69 278.19
  Q 216.53 253.59 222.01 229.00
  Q 222.32 227.61 223.08 226.63
  A 0.71 0.71 0.0 0 1 224.30 226.81
  C 227.19 234.43 229.72 241.83 236.78 246.71
  C 238.55 247.93 239.45 252.21 240.29 254.43
  C 241.50 257.65 243.81 260.64 245.65 263.60
  C 252.14 274.04 252.79 287.99 251.67 299.50
  Q 251.55 300.81 249.79 301.51
  Q 247.30 302.52 245.04 303.94
  Q 244.51 304.27 244.92 304.74
  Z"
/>
<path fill="#ffffff" d="
  M 152.50 238.22
  C 156.91 238.04 166.42 242.51 161.48 248.46
  Q 161.17 248.83 160.69 248.90
  C 156.23 249.58 149.67 246.53 145.93 244.20
  Q 145.52 243.95 145.44 243.48
  Q 143.32 229.94 156.61 228.14
  A 1.00 0.99 -14.3 0 1 157.68 228.77
  C 159.36 233.22 154.60 234.89 152.09 237.23
  Q 150.97 238.28 152.50 238.22
  Z"
/>
<path fill="#ffffff" d="
  M 357.97 237.45
  Q 354.50 234.96 351.10 232.40
  Q 349.96 231.54 349.97 230.20
  A 1.97 1.97 0.0 0 1 352.11 228.25
  C 358.08 228.80 366.33 235.00 363.64 242.14
  C 362.14 246.16 353.84 248.76 349.73 249.60
  C 345.71 250.42 345.57 244.33 347.28 242.27
  C 349.65 239.42 353.59 238.64 357.86 237.94
  Q 358.51 237.83 357.97 237.45
  Z"
/>
<path fill="#00cccc" d="
  M 341.62 228.80
  A 0.68 0.68 0.0 0 1 342.58 228.83
  L 342.81 229.06
  A 6.97 2.06 46.3 0 1 346.14 235.53
  L 346.04 235.62
  A 6.97 2.06 46.3 0 1 339.73 232.01
  L 339.50 231.77
  A 0.68 0.68 0.0 0 1 339.53 230.81
  L 341.62 228.80
  Z"
/>
<path fill="#00cccc" d="
  M 163.21 233.12
  L 166.01 228.89
  A 0.57 0.57 0.0 0 1 166.78 228.72
  L 168.96 230.05
  A 0.57 0.57 0.0 0 1 169.17 230.79
  L 167.75 233.70
  A 0.57 0.57 0.0 0 1 167.23 234.02
  L 163.68 234.00
  A 0.57 0.57 0.0 0 1 163.21 233.12
  Z"
/>
<path fill="#00cccc" d="
  M 238.65 230.19
  A 0.75 0.75 0.0 0 1 239.65 230.56
  L 239.71 230.69
  A 8.42 1.65 65.1 0 1 241.76 239.02
  L 241.36 239.21
  A 8.42 1.65 65.1 0 1 236.32 232.27
  L 236.26 232.13
  A 0.75 0.75 0.0 0 1 236.62 231.13
  L 238.65 230.19
  Z"
/>
<path fill="#b366ff" d="
  M 114.90 236.31
  Q 117.23 235.51 119.44 234.92
  A 1.22 1.21 -25.2 0 1 120.76 235.39
  C 122.73 238.18 114.43 242.39 111.96 243.54
  Q 97.59 250.21 86.74 251.94
  Q 79.72 253.06 69.25 253.17
  C 60.30 253.27 52.71 250.61 47.28 243.49
  Q 45.83 241.58 46.19 240.05
  Q 46.51 238.71 47.84 239.05
  Q 58.31 241.69 68.48 241.98
  C 71.29 242.05 73.95 242.85 76.67 242.74
  C 90.94 242.18 102.44 240.58 114.90 236.31
  Z"
/>
<path fill="#b366ff" d="
  M 444.56 241.98
  C 450.75 242.03 456.64 239.52 462.39 238.66
  A 1.50 1.50 0.0 0 1 464.07 240.50
  Q 463.28 243.67 461.01 245.26
  C 456.59 248.37 452.04 252.73 446.25 252.86
  Q 433.11 253.16 428.00 253.00
  C 422.87 252.83 417.30 250.73 412.16 249.24
  C 404.13 246.92 396.42 243.14 389.52 239.02
  Q 385.39 236.56 390.15 235.88
  C 391.52 235.68 394.09 236.24 395.78 236.77
  Q 412.76 242.12 427.00 241.98
  Q 435.78 241.90 444.56 241.98
  Z"
/>
<path fill="#00cccc" d="
  M 65.57 255.86
  C 74.17 256.07 84.22 256.76 92.33 255.09
  C 98.95 253.73 103.45 251.12 109.79 247.27
  Q 110.54 246.82 112.53 247.06
  Q 112.99 247.12 112.96 247.58
  C 112.73 251.01 111.20 252.60 108.06 254.14
  C 104.91 255.68 101.90 257.47 98.70 258.51
  C 88.65 261.76 75.89 261.34 67.49 260.91
  Q 61.00 260.59 54.48 257.24
  C 53.90 256.94 53.05 256.98 52.49 256.97
  Q 52.01 256.97 52.01 256.49
  L 52.00 254.48
  Q 52.00 253.97 52.51 253.99
  C 54.03 254.06 55.48 253.79 56.99 254.11
  C 59.75 254.71 62.76 255.79 65.57 255.86
  Z"
/>
<path fill="#00cccc" d="
  M 404.96 256.00
  Q 400.48 254.08 397.10 250.41
  A 0.77 0.77 0.0 0 1 397.42 249.15
  C 398.52 248.79 399.92 248.90 401.07 249.44
  C 419.21 257.79 437.25 259.53 456.30 253.10
  Q 457.14 252.82 457.55 253.03
  Q 458.26 253.38 457.96 254.12
  Q 456.25 258.31 451.78 259.48
  Q 427.73 265.73 404.96 256.00
  Z"
/>
<path fill="#b366ff" d="
  M 330.47 278.17
  Q 324.09 265.15 321.32 250.88
  Q 321.21 250.36 321.72 250.19
  Q 323.49 249.57 324.67 251.34
  Q 333.26 264.21 341.96 277.02
  C 345.95 282.90 351.03 289.30 356.87 293.42
  C 360.14 295.72 362.57 297.28 364.25 300.26
  A 1.08 1.07 -18.7 0 1 363.46 301.85
  C 357.89 302.63 350.50 301.44 346.11 297.40
  C 339.00 290.89 334.65 286.70 330.47 278.17
  Z"
/>
<path fill="#b366ff" d="
  M 185.62 259.62
  C 183.06 269.37 179.24 279.20 172.77 287.05
  Q 170.18 290.19 167.51 293.30
  C 161.73 300.02 154.44 302.98 145.45 301.80
  A 0.98 0.98 0.0 0 1 144.65 300.52
  Q 145.28 298.67 146.78 297.56
  Q 157.66 289.56 165.60 278.62
  C 171.90 269.94 177.67 260.79 184.15 252.48
  Q 186.66 249.25 186.68 253.35
  Q 186.69 255.55 185.62 259.62
  Z"
/>
<path fill="#00cccc" d="
  M 161.21 302.22
  C 179.23 290.47 187.38 273.48 189.86 252.44
  Q 189.93 251.83 190.54 251.87
  L 192.25 251.97
  Q 192.85 252.00 192.93 252.60
  C 193.78 259.39 191.55 266.63 190.52 273.33
  Q 189.61 279.18 187.98 282.92
  Q 182.49 295.58 171.80 304.69
  Q 171.42 305.01 170.92 305.01
  L 161.12 305.00
  Q 159.73 304.99 159.95 303.62
  Q 160.05 302.98 161.21 302.22
  Z"
/>
<path fill="#00cccc" d="
  M 318.63 254.90
  Q 318.84 255.17 318.96 255.51
  C 321.45 262.43 323.02 269.76 325.83 276.39
  Q 327.00 279.14 328.17 281.89
  C 331.34 289.28 336.72 295.17 343.46 299.52
  C 345.16 300.62 346.43 301.66 348.47 302.12
  A 0.94 0.94 0.0 0 1 349.07 303.53
  C 347.42 306.21 340.84 304.87 338.67 304.08
  C 333.07 302.05 327.30 294.66 323.90 289.62
  Q 322.19 287.08 321.13 283.32
  C 320.05 279.45 318.64 275.64 317.74 271.84
  C 316.78 267.76 312.90 256.33 316.22 253.06
  Q 316.60 252.70 317.12 252.80
  Q 318.12 252.99 318.33 254.21
  Q 318.40 254.60 318.63 254.90
  Z"
/>
<path fill="#b366ff" d="
  M 119.62 261.28
  Q 125.25 258.76 131.23 255.96
  A 1.33 1.33 0.0 0 1 132.96 256.54
  Q 133.56 257.66 132.42 258.93
  C 127.64 264.27 122.05 267.89 116.30 272.03
  C 104.72 280.39 88.72 282.24 75.12 279.14
  C 69.59 277.88 65.85 275.11 61.21 272.14
  C 59.25 270.88 58.78 269.63 58.33 267.51
  Q 58.22 266.99 58.76 266.99
  C 66.66 267.03 74.37 268.07 82.31 268.02
  C 96.21 267.94 107.41 266.75 119.62 261.28
  Z"
/>
<path fill="#b366ff" d="
  M 409.50 279.73
  C 396.76 278.01 385.49 267.37 376.46 259.07
  A 1.67 1.66 -46.4 0 1 376.41 256.68
  Q 377.14 255.96 378.19 256.38
  Q 381.07 257.55 383.88 258.89
  C 403.31 268.11 424.15 269.20 445.26 267.40
  C 446.32 267.31 447.98 266.79 449.33 267.08
  A 1.06 1.05 22.2 0 1 450.01 268.68
  C 445.87 275.17 438.41 278.56 431.15 279.69
  C 425.23 280.62 416.14 280.63 409.50 279.73
  Z"
/>
<path fill="#b366ff" d="
  M 354.11 262.39
  C 367.71 277.59 384.46 287.96 403.82 294.35
  Q 406.59 295.26 405.97 298.30
  A 2.01 2.00 1.6 0 1 404.28 299.89
  C 391.67 301.65 377.71 296.69 367.97 289.33
  C 365.05 287.12 362.27 282.92 360.43 280.50
  Q 354.84 273.13 352.00 264.09
  A 1.77 1.77 0.0 0 1 352.03 262.92
  Q 352.78 260.90 354.11 262.39
  Z"
/>
<path fill="#b366ff" d="
  M 108.38 292.56
  C 114.44 289.80 120.85 287.44 126.55 284.31
  C 137.49 278.30 146.79 271.77 155.02 262.27
  A 1.13 1.12 -28.0 0 1 156.99 262.87
  C 157.41 266.42 153.95 272.42 152.24 275.46
  C 147.48 283.91 138.09 292.55 129.05 296.19
  C 122.67 298.77 116.80 299.05 110.49 299.86
  Q 106.03 300.43 102.52 298.09
  A 1.24 1.24 0.0 0 1 102.46 296.07
  Q 105.09 294.06 108.38 292.56
  Z"
/>
<path fill="#00cccc" d="
  M 106.39 280.54
  Q 108.11 279.91 116.26 276.08
  A 1.22 1.22 0.0 0 1 118.00 277.20
  L 117.99 278.09
  A 2.96 2.94 -11.7 0 1 116.22 280.76
  C 110.69 283.20 105.21 285.64 99.42 286.76
  C 87.93 288.99 78.66 288.30 67.14 284.93
  A 2.98 2.98 0.0 0 1 65.00 282.07
  L 65.00 281.52
  Q 65.00 279.21 67.15 280.06
  Q 86.76 287.77 106.39 280.54
  Z"
/>
<path fill="#00cccc" d="
  M 394.39 277.98
  C 403.07 280.41 412.18 283.92 421.40 284.03
  C 424.91 284.07 428.90 283.15 432.73 282.87
  C 435.50 282.67 438.04 281.75 440.54 281.07
  Q 442.01 280.66 442.00 282.19
  L 441.99 283.49
  Q 441.98 285.34 440.27 286.05
  Q 431.19 289.87 423.61 288.91
  Q 410.31 287.23 400.48 283.83
  Q 396.11 282.32 392.06 278.02
  A 0.47 0.47 0.0 0 1 392.14 277.31
  L 392.52 277.06
  A 0.46 0.44 -41.9 0 1 393.07 277.08
  C 393.55 277.48 393.75 277.80 394.39 277.98
  Z"
/>
<path fill="#00cccc" d="
  M 133.66 296.66
  Q 139.76 293.92 146.33 287.96
  C 148.36 286.13 148.79 282.82 152.94 284.31
  A 0.54 0.54 0.0 0 1 153.25 285.06
  C 150.59 290.56 147.30 294.05 141.74 297.31
  C 134.72 301.42 127.71 305.01 119.97 304.01
  Q 116.01 303.50 119.27 301.20
  Q 119.90 300.76 121.99 300.71
  Q 124.84 300.64 133.66 296.66
  Z"
/>
<path fill="#00cccc" d="
  M 358.54 284.16
  C 367.96 293.32 378.88 299.44 391.47 302.26
  Q 393.23 302.66 393.12 304.11
  Q 393.08 304.66 392.54 304.74
  C 380.79 306.43 370.99 300.57 362.02 293.18
  Q 358.04 289.89 356.08 286.44
  A 0.86 0.85 -43.6 0 1 356.11 285.53
  Q 356.68 284.67 357.52 284.08
  A 0.81 0.80 49.3 0 1 358.54 284.16
  Z"
/>
<path fill="#00cccc" d="
  M 269.57 305.16
  A 0.37 0.37 0.0 0 1 269.49 305.68
  L 268.58 306.35
  A 6.01 3.54 53.8 0 1 262.17 303.59
  L 261.68 302.91
  A 6.01 3.54 53.8 0 1 260.99 295.97
  L 261.90 295.30
  A 0.37 0.37 0.0 0 1 262.41 295.38
  L 269.57 305.16
  Z"
/>
<path fill="#ffffff" d="
  M 279.16 316.84
  A 0.72 0.72 0.0 0 0 279.10 318.15
  L 283.72 320.57
  Q 284.15 320.79 284.36 321.23
  Q 285.69 323.97 285.47 326.00
  Q 282.29 355.46 279.89 385.00
  Q 278.59 401.01 276.77 408.76
  C 274.90 416.74 264.38 418.36 257.87 417.84
  Q 257.33 417.79 257.31 417.24
  C 256.96 406.51 258.09 398.34 266.80 390.55
  Q 268.12 389.37 268.83 385.51
  Q 273.73 358.57 275.24 346.50
  C 276.55 335.98 278.58 320.34 271.52 313.67
  A 1.75 1.74 -59.8 0 1 271.05 311.87
  Q 272.61 306.91 272.17 301.79
  A 2.03 2.03 0.0 0 1 275.00 299.75
  C 277.83 300.96 280.83 300.17 283.43 303.04
  C 284.82 304.58 285.08 306.54 285.66 308.54
  Q 285.80 309.02 285.67 309.51
  Q 284.19 314.75 279.16 316.84
  Z"
/>
<path fill="#00cccc" d="
  M 233.24 311.62
  Q 236.70 319.05 244.45 320.19
  Q 245.48 320.34 244.60 320.91
  C 242.33 322.38 235.62 324.76 233.58 321.93
  Q 230.25 317.29 228.64 311.87
  C 227.90 309.36 227.87 306.11 227.05 303.21
  Q 226.92 302.74 227.12 302.29
  Q 227.71 300.95 229.18 300.98
  Q 229.68 300.99 229.94 301.43
  C 231.89 304.69 231.61 308.13 233.24 311.62
  Z"
/>
<ellipse fill="#00cccc" cx="0.00" cy="0.00" transform="translate(263.36,324.06) rotate(105.5)" rx="3.44" ry="1.29"/>
<path fill="#ffffff" d="
  M 246.89 339.27
  A 1.28 1.27 -9.2 0 0 248.12 337.57
  Q 245.38 329.92 250.67 324.02
  A 0.54 0.54 0.0 0 1 251.59 324.22
  C 254.67 334.27 255.38 342.31 254.57 354.32
  Q 254.54 354.79 254.16 355.09
  C 250.30 358.14 243.94 356.68 240.67 353.86
  C 235.13 349.05 234.16 340.23 236.28 333.33
  A 0.70 0.65 -12.3 0 1 236.50 333.01
  Q 237.10 332.51 237.47 333.28
  Q 238.92 336.32 241.15 338.82
  Q 241.47 339.17 241.93 339.18
  L 246.89 339.27
  Z"
/>
<path fill="#00cccc" d="
  M 269.31 341.96
  Q 270.41 344.71 269.83 347.53
  C 269.15 350.80 269.04 352.60 268.92 355.38
  Q 268.90 356.02 268.25 356.00
  L 267.82 355.99
  Q 267.30 355.98 267.16 355.47
  C 265.14 348.15 262.44 339.37 262.63 331.78
  Q 262.65 331.22 263.04 330.83
  Q 264.09 329.78 264.65 328.48
  A 0.70 0.70 0.0 0 1 265.98 328.69
  Q 266.61 335.15 269.31 341.96
  Z"
/>
<rect fill="#00cccc" x="-1.62" y="-4.73" transform="translate(265.65,375.74) rotate(5.8)" width="3.24" height="9.46" rx="1.54"/>
</svg>
